<svg version="1.2" baseProfile="tiny-ps" xmlns="http://www.w3.org/2000/svg" viewBox="0 0 128 128" width="128" height="128">
	<path fill="#1589d4" d="M76.91 39.17C76.91 48.35 70.38 57.06 63.55 66.16C55.46 76.96 46.96 88.31 48.47 101.62C49.28 111.07 53.23 118.17 55.7 122.6C58.32 127.31 59.26 128.99 52.93 127.27C31.19 121.13 10 88.24 32.86 58.69C35.01 55.65 37.59 52.82 40.3 49.84C49.54 39.68 60.31 27.86 60.74 0.69C60.74 -0.42 61.29 0.14 61.29 0.14C67.99 5.16 76.91 20.77 76.91 39.17ZM76.91 74.3C83.04 65.38 87.5 55.9 88.62 51.44C93.64 55.34 107.02 68.72 104.79 89.91C103.27 109.67 87.93 119.3 84.73 121.31C84.4 121.52 84.2 121.64 84.15 121.69C77.62 124.77 77.45 127.84 76.69 127.99C76.35 128.06 75.89 127.54 74.68 126.15C67.99 118.35 56.28 103.85 76.91 74.3Z" />
</svg>